<mxfile host="app.diagrams.net" modified="2023-03-19T17:43:11.318Z" agent="5.0 (Windows NT 10.0; Win64; x64) AppleWebKit/537.36 (KHTML, like Gecko) Chrome/111.0.0.0 Safari/537.36" etag="wApUdGGrr10-BPBPgzjZ" version="21.0.8" type="github">
  <diagram id="C5RBs43oDa-KdzZeNtuy" name="Page-1">
    <mxGraphModel dx="1050" dy="549" grid="1" gridSize="10" guides="1" tooltips="1" connect="1" arrows="1" fold="1" page="1" pageScale="1" pageWidth="827" pageHeight="1169" math="0" shadow="0">
      <root>
        <mxCell id="WIyWlLk6GJQsqaUBKTNV-0" />
        <mxCell id="WIyWlLk6GJQsqaUBKTNV-1" parent="WIyWlLk6GJQsqaUBKTNV-0" />
        <mxCell id="M04iubtX4ndRGOgQh7D--0" value="&lt;b style=&quot;font-size: 20px;&quot;&gt;Sort algorithm&lt;/b&gt;" style="text;html=1;align=center;verticalAlign=middle;resizable=0;points=[];autosize=1;strokeColor=none;fillColor=none;fontSize=20;" vertex="1" parent="WIyWlLk6GJQsqaUBKTNV-1">
          <mxGeometry x="300" y="10" width="160" height="40" as="geometry" />
        </mxCell>
        <mxCell id="M04iubtX4ndRGOgQh7D--3" value="" style="edgeStyle=orthogonalEdgeStyle;rounded=0;orthogonalLoop=1;jettySize=auto;html=1;" edge="1" parent="WIyWlLk6GJQsqaUBKTNV-1">
          <mxGeometry relative="1" as="geometry">
            <mxPoint x="390" y="110" as="sourcePoint" />
            <mxPoint x="390" y="150" as="targetPoint" />
          </mxGeometry>
        </mxCell>
        <mxCell id="M04iubtX4ndRGOgQh7D--17" value="" style="edgeStyle=orthogonalEdgeStyle;rounded=0;orthogonalLoop=1;jettySize=auto;html=1;" edge="1" parent="WIyWlLk6GJQsqaUBKTNV-1" source="M04iubtX4ndRGOgQh7D--4" target="M04iubtX4ndRGOgQh7D--16">
          <mxGeometry relative="1" as="geometry" />
        </mxCell>
        <mxCell id="M04iubtX4ndRGOgQh7D--4" value="&lt;font style=&quot;font-size: 16px;&quot;&gt;input&lt;br&gt;x,y,z&lt;/font&gt;" style="shape=parallelogram;perimeter=parallelogramPerimeter;whiteSpace=wrap;html=1;fixedSize=1;" vertex="1" parent="WIyWlLk6GJQsqaUBKTNV-1">
          <mxGeometry x="330" y="150" width="120" height="60" as="geometry" />
        </mxCell>
        <mxCell id="M04iubtX4ndRGOgQh7D--5" value="&lt;font style=&quot;font-size: 14px;&quot;&gt;start&lt;/font&gt;" style="strokeWidth=2;html=1;shape=mxgraph.flowchart.terminator;whiteSpace=wrap;" vertex="1" parent="WIyWlLk6GJQsqaUBKTNV-1">
          <mxGeometry x="340" y="70" width="100" height="40" as="geometry" />
        </mxCell>
        <mxCell id="M04iubtX4ndRGOgQh7D--6" value="" style="strokeWidth=2;html=1;shape=mxgraph.flowchart.annotation_2;align=left;labelPosition=right;pointerEvents=1;" vertex="1" parent="WIyWlLk6GJQsqaUBKTNV-1">
          <mxGeometry x="440" y="130" width="120" height="100" as="geometry" />
        </mxCell>
        <mxCell id="M04iubtX4ndRGOgQh7D--11" value="&lt;font style=&quot;font-size: 16px;&quot;&gt;x,y and z are numbers&amp;nbsp;&lt;br&gt;given from input&lt;br&gt;&lt;/font&gt;" style="text;html=1;align=center;verticalAlign=middle;resizable=0;points=[];autosize=1;strokeColor=none;fillColor=none;" vertex="1" parent="WIyWlLk6GJQsqaUBKTNV-1">
          <mxGeometry x="500" y="150" width="190" height="50" as="geometry" />
        </mxCell>
        <mxCell id="M04iubtX4ndRGOgQh7D--16" value="&lt;font style=&quot;font-size: 18px;&quot;&gt;x&lt;/font&gt;&lt;font style=&quot;font-size: 17px;&quot;&gt;&amp;gt;y&lt;/font&gt;" style="rhombus;whiteSpace=wrap;html=1;" vertex="1" parent="WIyWlLk6GJQsqaUBKTNV-1">
          <mxGeometry x="325" y="260" width="130" height="80" as="geometry" />
        </mxCell>
      </root>
    </mxGraphModel>
  </diagram>
</mxfile>
